<?xml version="1.0" encoding="UTF-8"?>
<svg width="16px" height="16px" viewBox="0 0 16 16" version="1.1" xmlns="http://www.w3.org/2000/svg" xmlns:xlink="http://www.w3.org/1999/xlink">
    <!-- Generator: Sketch 57.1 (83088) - https://sketch.com -->
    <title>Icons/16/reply notificasion</title>
    <desc>Created with Sketch.</desc>
    <g id="Icons/16/reply-notificasion" stroke="none" stroke-width="1" fill="none" fill-rule="evenodd">
        <path d="M13.3045453,8.25 C13.6842411,8.25 13.9980363,8.53215388 14.0476987,8.89822944 L14.0545453,9 L14.0545453,10.0657447 C14.0545453,11.5282766 12.9128407,12.724149 11.4720676,12.8107259 L11.3045453,12.8157447 L4.03299777,12.8154823 L4.55591416,13.2320017 C4.85037606,13.46671 4.92118162,13.8780263 4.73764805,14.1942283 L4.67492712,14.2859637 C4.4402189,14.5804256 4.02890256,14.6512312 3.71270056,14.4676976 L3.62096512,14.4049767 L1.53252548,12.7403336 C1.19808455,12.4737591 1.15877474,11.9895592 1.42413802,11.6730794 L1.50407087,11.5912146 L3.59251051,9.75036866 C3.90324335,9.47647457 4.37717713,9.50633827 4.65107122,9.81707112 C4.90006585,10.0995555 4.89802098,10.5169167 4.66213319,10.7962467 L4.58436877,10.8756318 L4.08499777,11.3154823 L11.3045453,11.3157447 C11.951754,11.3157447 12.4840792,10.8238701 12.5480917,10.19355 L12.5545453,10.0657447 L12.5545453,9 C12.5545453,8.58578644 12.8903317,8.25 13.3045453,8.25 Z M12.2872994,1.53230237 L12.3790349,1.5950233 L14.4674745,3.25966636 C14.8019155,3.52624087 14.8412253,4.0104408 14.575862,4.32692062 L14.4959291,4.40878543 L12.4074895,6.24963134 C12.0967566,6.52352543 11.6228229,6.49366173 11.3489288,6.18292888 C11.0999341,5.90044448 11.101979,5.48308327 11.3378668,5.20375331 L11.4156312,5.12436817 L11.9139978,4.68348231 L4.69545471,4.68425527 C4.04824602,4.68425527 3.51592081,5.17612994 3.45190832,5.80645003 L3.44545471,5.93425527 L3.44545471,7 C3.44545471,7.41421356 3.10966827,7.75 2.69545471,7.75 C2.28124115,7.75 1.94545471,7.41421356 1.94545471,7 L1.94545471,5.93425527 C1.94545471,4.41547221 3.17667165,3.18425527 4.69545471,3.18425527 L11.9659978,3.18348231 L11.4440858,2.76799827 C11.1201777,2.50981922 11.0668938,2.03794436 11.3250729,1.71403627 C11.5597811,1.41957436 11.9710974,1.3487688 12.2872994,1.53230237 Z" id="Shape" fill="#cccccc"></path>
    </g>
</svg>