<?xml version="1.0" encoding="UTF-8"?>
<svg width="184px" height="184px" viewBox="0 0 184 184" version="1.1" xmlns="http://www.w3.org/2000/svg" xmlns:xlink="http://www.w3.org/1999/xlink">
    <!-- Generator: Sketch 59.1 (86144) - https://sketch.com -->
    <title>IL/ Announcement</title>
    <desc>Created with Sketch.</desc>
    <g id="IL/-Announcement" stroke="none" stroke-width="1" fill="none" fill-rule="evenodd">
        <circle id="Oval" fill="#333333" cx="92" cy="92" r="92"></circle>
        <g id="Group-6" transform="translate(89.000000, 93.000000) rotate(-24.000000) translate(-89.000000, -93.000000) translate(13.000000, 42.000000)">
            <path d="M99.0000303,6.02703807 L99.0008203,80.9940676 C85.6220748,67.5870244 64.5645765,59.6534296 41.6154504,59.4878921 L40.8823962,59.4852491 L38,59.4850381 L38,27.5100381 L40.8823962,27.510571 C64.1252669,27.510571 85.4773123,19.5451657 99.0000303,6.02703807 Z" id="Combined-Shape" fill="#999999"></path>
            <path d="M99.0000303,6.02703807 L99.0008203,80.9940676 C85.6220748,67.5870244 64.5645765,59.6534296 41.6154504,59.4878921 L40.8823962,59.4852491 L38,59.4850381 L38,27.5100381 L40.8823962,27.510571 C64.1252669,27.510571 85.4773123,19.5451657 99.0000303,6.02703807 Z" id="Combined-Shape" fill="#01ACCD" opacity="0.5"></path>
            <path d="M41.133785,7.44823061 C62.1308919,4.61562021 82.4422438,6.2335788 99.0011259,11.7752981 L99.0009613,31.184049 C85.6222158,17.7770058 64.5647175,9.843411 41.6155914,9.67787349 L40.8825372,9.67523056 L38.000141,9.67501949 L38,7.88562145 L40.2786838,7.5659974 Z" id="Combined-Shape" fill="#222222" opacity="0.3" transform="translate(68.500563, 18.631335) scale(1, -1) translate(-68.500563, -18.631335) "></path>
            <rect id="Rectangle" fill="#01ACCD" opacity="0.5" x="99" y="5.68434189e-13" width="8" height="87" rx="4"></rect>
            <path d="M5,31 L5,57 L2,57 C0.8954305,57 1.13700365e-12,56.1045695 1.13686838e-12,55 L1.13686838e-12,33 C1.13673311e-12,31.8954305 0.8954305,31 2,31 L5,31 Z" id="Combined-Shape" fill="#01ACCD" opacity="0.6"></path>
            <path d="M28,63 L28,100 C28,101.104569 27.1045695,102 26,102 L16,102 C14.8954305,102 14,101.104569 14,100 L14,63 L28,63 Z" id="Combined-Shape" fill="#01ACCD" opacity="0.8"></path>
            <rect id="Rectangle" fill="#01ACCD" opacity="0.3" x="5" y="24" width="33" height="39" rx="2"></rect>
            <path d="M136.21539,28.5 C136.767675,28.5 137.21539,28.9477153 137.21539,29.5 L137.21539,58.5 C137.21539,59.0522847 136.767675,59.5 136.21539,59.5 C135.663106,59.5 135.21539,59.0522847 135.21539,58.5 L135.21539,29.5 C135.21539,28.9477153 135.663106,28.5 136.21539,28.5 Z" id="Rectangle" fill="#01ACCD" opacity="0.8" transform="translate(136.215390, 44.000000) rotate(-270.000000) translate(-136.215390, -44.000000) "></path>
            <path d="M147.39826,6 C147.590041,6.52371829 147.445814,7.11141336 147.033371,7.48684863 L122.031671,30.2452022 C121.778552,30.4756088 121.386578,30.4571973 121.156171,30.2040789 C121.102124,30.1447044 121.060129,30.0753936 121.032521,30 C120.84074,29.4762817 120.984967,28.8885866 121.39741,28.5131514 L146.39911,5.75479782 C146.652228,5.52439124 147.044203,5.54280275 147.274609,5.79592106 C147.328656,5.85529565 147.370651,5.92460639 147.39826,6 Z" id="Rectangle" fill="#01ACCD" opacity="0.8"></path>
            <path d="M121.032521,58 C120.84074,58.5237183 120.984967,59.1114134 121.39741,59.4868486 L146.39911,82.2452022 C146.652228,82.4756088 147.044203,82.4571973 147.274609,82.2040789 C147.328656,82.1447044 147.370651,82.0753936 147.39826,82 C147.590041,81.4762817 147.445814,80.8885866 147.033371,80.5131514 L122.031671,57.7547978 C121.778552,57.5243912 121.386578,57.5428027 121.156171,57.7959211 C121.102124,57.8552956 121.060129,57.9246064 121.032521,58 Z" id="Rectangle" fill="#01ACCD" opacity="0.8"></path>
        </g>
        <g id="Oval-Copy-6" opacity="0.6" transform="translate(104.000000, 151.000000)" fill="#01ACCD">
            <path d="M3.3015873,6.64864865 C5.12500362,6.64864865 6.6031746,5.16029795 6.6031746,3.32432432 C6.6031746,1.4883507 5.12500362,0 3.3015873,0 C1.47817098,0 1.08713039e-12,1.4883507 1.08713039e-12,3.32432432 C1.08713039e-12,5.16029795 1.47817098,6.64864865 3.3015873,6.64864865 Z M3.3015873,4.64864865 C2.5858248,4.64864865 2,4.05878945 2,3.32432432 C2,2.5898592 2.5858248,2 3.3015873,2 C4.0173498,2 4.6031746,2.5898592 4.6031746,3.32432432 C4.6031746,4.05878945 4.0173498,4.64864865 3.3015873,4.64864865 Z" id="Oval-Copy-2"></path>
        </g>
        <g id="Path-2" opacity="0.4" transform="translate(85.000000, 147.000000)" fill="#01ACCD">
            <polygon id="Path" points="5.5 2.5 8 2.5 8 5.5 5.5 5.5 5.5 8 2.5 8 2.5 5.5 0 5.5 0 2.5 2.5 2.5 2.5 0 5.5 0"></polygon>
        </g>
        <g id="Oval-2" opacity="0.5" transform="translate(147.000000, 112.000000)" fill="#01ACCD">
            <path d="M3.3015873,6.64864865 C5.12500362,6.64864865 6.6031746,5.16029795 6.6031746,3.32432432 C6.6031746,1.4883507 5.12500362,0 3.3015873,0 C1.47817098,0 1.08002496e-12,1.4883507 1.08002496e-12,3.32432432 C1.08002496e-12,5.16029795 1.47817098,6.64864865 3.3015873,6.64864865 Z M3.3015873,4.64864865 C2.5858248,4.64864865 2,4.05878945 2,3.32432432 C2,2.5898592 2.5858248,2 3.3015873,2 C4.0173498,2 4.6031746,2.5898592 4.6031746,3.32432432 C4.6031746,4.05878945 4.0173498,4.64864865 3.3015873,4.64864865 Z" id="Oval"></path>
        </g>
        <g id="Oval-Copy-4" opacity="0.8" transform="translate(157.000000, 129.000000)" fill="#01ACCD">
            <path d="M3.3015873,6.64864865 C5.12500362,6.64864865 6.6031746,5.16029795 6.6031746,3.32432432 C6.6031746,1.4883507 5.12500362,1.42108547e-14 3.3015873,1.42108547e-14 C1.47817098,1.42108547e-14 1.08002496e-12,1.4883507 1.08002496e-12,3.32432432 C1.08002496e-12,5.16029795 1.47817098,6.64864865 3.3015873,6.64864865 Z M3.3015873,4.64864865 C2.5858248,4.64864865 2,4.05878945 2,3.32432432 C2,2.5898592 2.5858248,2 3.3015873,2 C4.0173498,2 4.6031746,2.5898592 4.6031746,3.32432432 C4.6031746,4.05878945 4.0173498,4.64864865 3.3015873,4.64864865 Z" id="Oval-Copy"></path>
        </g>
        <g id="Oval-Copy-5" opacity="0.3" transform="translate(57.000000, 28.972973)" fill="#01ACCD">
            <path d="M3.3015873,6.64864865 C5.12500362,6.64864865 6.6031746,5.16029795 6.6031746,3.32432432 C6.6031746,1.4883507 5.12500362,-5.32907052e-15 3.3015873,-5.32907052e-15 C1.47817098,-5.32907052e-15 1.07647224e-12,1.4883507 1.07647224e-12,3.32432432 C1.07647224e-12,5.16029795 1.47817098,6.64864865 3.3015873,6.64864865 Z M3.3015873,4.64864865 C2.5858248,4.64864865 2,4.05878945 2,3.32432432 C2,2.5898592 2.5858248,2 3.3015873,2 C4.0173498,2 4.6031746,2.5898592 4.6031746,3.32432432 C4.6031746,4.05878945 4.0173498,4.64864865 3.3015873,4.64864865 Z" id="Oval-Copy-3"></path>
        </g>
        <g id="Path-2" opacity="0.4" transform="translate(74.000000, 36.000000)" fill="#01ACCD">
            <polygon id="Path" points="5.5 2.5 8 2.5 8 5.5 5.5 5.5 5.5 8 2.5 8 2.5 5.5 0 5.5 0 2.5 2.5 2.5 2.5 0 5.5 0"></polygon>
        </g>
        <g id="Path-Copy-3" opacity="0.3" transform="translate(164.000000, 107.000000)" fill="#01ACCD">
            <polygon id="Path-Copy" points="5.5 2.5 8 2.5 8 5.5 5.5 5.5 5.5 8 2.5 8 2.5 5.5 0 5.5 0 2.5 2.5 2.5 2.5 0 5.5 0"></polygon>
        </g>
        <g id="Path-Copy-4" opacity="0.9" transform="translate(74.000000, 12.000000)" fill="#01ACCD">
            <polygon id="Path-Copy-2" points="5.5 2.5 8 2.5 8 5.5 5.5 5.5 5.5 8 2.5 8 2.5 5.5 0 5.5 0 2.5 2.5 2.5 2.5 0 5.5 0"></polygon>
        </g>
    </g>
</svg>