<?xml version="1.0" encoding="UTF-8"?>
<svg width="184px" height="184px" viewBox="0 0 184 184" version="1.1" xmlns="http://www.w3.org/2000/svg" xmlns:xlink="http://www.w3.org/1999/xlink">
    <!-- Generator: Sketch 55.2 (78181) - https://sketchapp.com -->
    <title>kitchen-sink/ Chat/ Q&amp;A/empty state/il</title>
    <desc>Created with Sketch.</desc>
    <g id="kitchen-sink/-Chat/-Q&amp;A/empty-state/il" stroke="none" stroke-width="1" fill="none" fill-rule="evenodd">
        <circle id="Oval" fill="#333333" cx="92" cy="92" r="92"></circle>
        <g id="Oval-2" opacity="0.5" transform="translate(142.904762, 44.000000)" fill="#01ACCD">
            <path d="M3.3015873,6.64864865 C5.12500362,6.64864865 6.6031746,5.16029795 6.6031746,3.32432432 C6.6031746,1.4883507 5.12500362,0 3.3015873,0 C1.47817098,0 1.08002496e-12,1.4883507 1.08002496e-12,3.32432432 C1.08002496e-12,5.16029795 1.47817098,6.64864865 3.3015873,6.64864865 Z M3.3015873,4.64864865 C2.5858248,4.64864865 2,4.05878945 2,3.32432432 C2,2.5898592 2.5858248,2 3.3015873,2 C4.0173498,2 4.6031746,2.5898592 4.6031746,3.32432432 C4.6031746,4.05878945 4.0173498,4.64864865 3.3015873,4.64864865 Z" id="Oval"></path>
        </g>
        <g id="Oval-Copy-4" opacity="0.8" transform="translate(157.761905, 64.777027)" fill="#01ACCD">
            <path d="M3.3015873,6.64864865 C5.12500362,6.64864865 6.6031746,5.16029795 6.6031746,3.32432432 C6.6031746,1.4883507 5.12500362,1.42108547e-14 3.3015873,1.42108547e-14 C1.47817098,1.42108547e-14 1.08002496e-12,1.4883507 1.08002496e-12,3.32432432 C1.08002496e-12,5.16029795 1.47817098,6.64864865 3.3015873,6.64864865 Z M3.3015873,4.64864865 C2.5858248,4.64864865 2,4.05878945 2,3.32432432 C2,2.5898592 2.5858248,2 3.3015873,2 C4.0173498,2 4.6031746,2.5898592 4.6031746,3.32432432 C4.6031746,4.05878945 4.0173498,4.64864865 3.3015873,4.64864865 Z" id="Oval-Copy"></path>
        </g>
        <g id="Oval-Copy-6" opacity="0.6" transform="translate(79.000000, 158.000000)" fill="#01ACCD">
            <path d="M3.3015873,6.64864865 C5.12500362,6.64864865 6.6031746,5.16029795 6.6031746,3.32432432 C6.6031746,1.4883507 5.12500362,0 3.3015873,0 C1.47817098,0 1.08713039e-12,1.4883507 1.08713039e-12,3.32432432 C1.08713039e-12,5.16029795 1.47817098,6.64864865 3.3015873,6.64864865 Z M3.3015873,4.64864865 C2.5858248,4.64864865 2,4.05878945 2,3.32432432 C2,2.5898592 2.5858248,2 3.3015873,2 C4.0173498,2 4.6031746,2.5898592 4.6031746,3.32432432 C4.6031746,4.05878945 4.0173498,4.64864865 3.3015873,4.64864865 Z" id="Oval-Copy-2"></path>
        </g>
        <g id="Oval-Copy-5" opacity="0.3" transform="translate(57.000000, 28.972973)" fill="#01ACCD">
            <path d="M3.3015873,6.64864865 C5.12500362,6.64864865 6.6031746,5.16029795 6.6031746,3.32432432 C6.6031746,1.4883507 5.12500362,-5.32907052e-15 3.3015873,-5.32907052e-15 C1.47817098,-5.32907052e-15 1.07647224e-12,1.4883507 1.07647224e-12,3.32432432 C1.07647224e-12,5.16029795 1.47817098,6.64864865 3.3015873,6.64864865 Z M3.3015873,4.64864865 C2.5858248,4.64864865 2,4.05878945 2,3.32432432 C2,2.5898592 2.5858248,2 3.3015873,2 C4.0173498,2 4.6031746,2.5898592 4.6031746,3.32432432 C4.6031746,4.05878945 4.0173498,4.64864865 3.3015873,4.64864865 Z" id="Oval-Copy-3"></path>
        </g>
        <g id="Path-2" opacity="0.4" transform="translate(63.000000, 144.000000)" fill="#01ACCD">
            <polygon id="Path" points="5.5 2.5 8 2.5 8 5.5 5.5 5.5 5.5 8 2.5 8 2.5 5.5 0 5.5 0 2.5 2.5 2.5 2.5 0 5.5 0"></polygon>
        </g>
        <g id="Path-Copy-3" opacity="0.3" transform="translate(133.000000, 60.000000)" fill="#01ACCD">
            <polygon id="Path-Copy" points="5.5 2.5 8 2.5 8 5.5 5.5 5.5 5.5 8 2.5 8 2.5 5.5 0 5.5 0 2.5 2.5 2.5 2.5 0 5.5 0"></polygon>
        </g>
        <g id="Group-11" transform="translate(67.707387, 93.500000) rotate(-8.000000) translate(-67.707387, -93.500000) translate(11.707387, 48.000000)">
            <g id="Combined-Shape-2" opacity="0.5" transform="translate(0.190750, 0.873485)" fill="#01ACCD">
                <path d="M12.7800257,75.4836497 L3.6359979,88.4870378 C3.26146608,89.0196458 2.6511109,89.3365984 2,89.3365984 C0.8954305,89.3365984 1.75401711e-12,88.4411679 1.75859327e-12,87.3365984 L1.75859327e-12,69.2238069 L1.7408297e-12,5 C1.74049153e-12,2.23857625 2.23857625,-1.34495854e-13 5,-1.3500312e-13 L105.816422,-1.3500312e-13 C108.577846,-1.28152474e-13 110.816422,2.23857625 110.816422,5 L110.816422,70.4836497 C110.816422,73.2450735 108.577846,75.4836497 105.816422,75.4836497 L12.7800257,75.4836497 Z" id="Combined-Shape"></path>
            </g>
            <g id="Group-10" transform="translate(55.554964, 39.668539) scale(-1, 1) translate(-55.554964, -39.668539) translate(11.054964, 14.168539)" fill="#222222" opacity="0.7">
                <g id="Group" transform="translate(0.809250, 0.873485)">
                    <rect id="Rectangle" x="3.63797881e-12" y="3" width="45.3704916" height="4.01508775" rx="2.00754388"></rect>
                    <rect id="Rectangle-Copy-2" x="0" y="15.8482808" width="32.5222108" height="4.01508775" rx="2.00754388"></rect>
                    <rect id="Rectangle-Copy-3" x="7.27595761e-12" y="28.6965616" width="48.5825618" height="4.01508775" rx="2.00754388"></rect>
                    <rect id="Rectangle-Copy-4" x="3.63797881e-12" y="41.5448424" width="36.5372985" height="4.01508775" rx="2.00754388"></rect>
                    <path d="M55.0549642,14.2193612 C55.0549642,12.1908813 55.7056244,10.1357417 57.0069642,8.05388077 C58.3083041,5.97201982 60.2069517,4.24783778 62.7029642,2.8812829 C65.1989767,1.51472803 68.1109476,0.831460838 71.4389642,0.831460838 C74.532313,0.831460838 77.2629524,1.4026295 79.6309642,2.54498397 C81.9989761,3.68733844 83.8282911,5.24070369 85.1189642,7.20512632 C86.4096373,9.16954895 87.0549642,11.3047589 87.0549642,13.6108203 C87.0549642,15.425776 86.6869679,17.0165074 85.9509642,18.3830623 C85.2149605,19.7496171 84.3403026,20.9293206 83.3269642,21.9222082 C82.3136258,22.9150957 80.4949773,24.5858975 77.8709642,26.9346637 C77.1456273,27.5965887 76.5642997,28.1784334 76.1269642,28.6802153 C75.6896287,29.1819972 75.3642986,29.6410673 75.1509642,30.0574395 C74.9376298,30.4738117 74.7722981,30.8901776 74.6549642,31.3065498 C74.5376303,31.722922 74.3616321,32.4542314 74.1269642,33.5005 C73.7216289,35.7211517 72.4523082,36.8314608 70.3189642,36.8314608 C69.2096253,36.8314608 68.2763013,36.4684751 67.5189642,35.7424929 C66.7616271,35.0165106 66.3829642,33.9382296 66.3829642,32.5076174 C66.3829642,30.7140141 66.6602948,29.1606489 67.2149642,27.8474751 C67.7696337,26.5343012 68.5056263,25.3812879 69.4229642,24.3884003 C70.3403021,23.3955128 71.5776231,22.2158093 73.1349642,20.8492544 C74.5003044,19.6535189 75.4869612,18.7513927 76.0949642,18.1428487 C76.7029673,17.5343048 77.2149621,16.8563756 77.6309642,16.1090409 C78.0469663,15.3617062 78.2549642,14.5503264 78.2549642,13.6748772 C78.2549642,11.9666836 77.6203039,10.5254169 76.3509642,9.35103379 C75.0816245,8.1766507 73.4443076,7.58946796 71.4389642,7.58946796 C69.0922858,7.58946796 67.3643031,8.18198872 66.2549642,9.36704803 C65.1456253,10.5521073 64.2069681,12.2976415 63.4389642,14.6037028 C62.7136273,17.0165263 61.337641,18.2229199 59.3109642,18.2229199 C58.1162916,18.2229199 57.1083017,17.8012159 56.2869642,16.9577954 C55.4656268,16.1143748 55.0549642,15.2015725 55.0549642,14.2193612 Z M70.5962748,49.0056819 C69.245216,49.0056819 68.0658258,48.5653295 67.0580688,47.6846116 C66.0503118,46.8038937 65.5464409,45.572022 65.5464409,43.9889595 C65.5464409,42.5842702 66.0337007,41.4025651 67.0082349,40.4438089 C67.9827691,39.4850528 69.1787705,39.0056819 70.5962748,39.0056819 C71.9916306,39.0056819 73.1654838,39.4850528 74.1178695,40.4438089 C75.0702552,41.4025651 75.5464409,42.5842702 75.5464409,43.9889595 C75.5464409,45.5497253 75.048107,46.776023 74.0514243,47.6678892 C73.0547416,48.5597554 71.9030366,49.0056819 70.5962748,49.0056819 Z" id="?" transform="translate(71.054964, 24.918571) scale(-1, 1) translate(-71.054964, -24.918571) "></path>
                </g>
            </g>
            <g id="Combined-Shape-3" opacity="0.304594494" transform="translate(60.102562, 49.298337)" fill="#222222">
                <path d="M50.9046095,8.00319209 L50.9046095,16.0587977 C50.9046095,22.13393 45.9797417,27.0587977 39.9046095,27.0587977 L-4.61852778e-13,27.0587977 L4.27817703,8.52797716 C5.64478443,2.60855015 11.5512823,-1.08223936 17.4707093,0.284368041 L50.9046095,8.00319209 Z" id="Combined-Shape"></path>
            </g>
        </g>
        <g id="Path-Copy-4" opacity="0.9" transform="translate(74.000000, 12.000000)" fill="#01ACCD">
            <polygon id="Path-Copy-2" points="5.5 2.5 8 2.5 8 5.5 5.5 5.5 5.5 8 2.5 8 2.5 5.5 0 5.5 0 2.5 2.5 2.5 2.5 0 5.5 0"></polygon>
        </g>
        <g id="Group-9" transform="translate(136.792233, 119.509425) rotate(5.000000) translate(-136.792233, -119.509425) translate(100.292233, 91.009425)">
            <path d="M7.65638216,49.5330929 L3.78826127,55.2365977 C3.41607961,55.7853757 2.79610576,56.114015 2.13302466,56.114015 C1.02845516,56.114015 0.133024656,55.2185845 0.133024656,54.114015 L0.133024656,44.0496302 L0.15494873,44.0496302 C0.140432056,43.8793799 0.133024656,43.7071014 0.133024656,43.5330929 L0.133024656,6.95053108 C0.133024656,3.63682258 2.81931616,0.950531075 6.13302466,0.950531075 L65.6015866,0.950531075 C68.9152951,0.950531075 71.6015866,3.63682258 71.6015866,6.95053108 L71.6015866,43.5330929 C71.6015866,46.8468014 68.9152951,49.5330929 65.6015866,49.5330929 L7.65638216,49.5330929 Z" id="Combined-Shape-Copy" fill="#999999" transform="translate(35.867306, 28.532273) scale(-1, 1) translate(-35.867306, -28.532273) "></path>
            <g id="Group-2" transform="translate(0.133025, 0.950531)">
                <path d="M7.52335751,48.5825618 L3.65523662,54.2860666 C3.28305496,54.8348446 2.6630811,55.163484 2,55.163484 C0.8954305,55.163484 1.51743239e-13,54.2680535 1.52766688e-13,53.163484 L1.52766688e-13,43.0990991 L0.0219240742,43.0990991 C0.00740739985,42.9288488 -2.13141511e-13,42.7565704 -2.13162821e-13,42.5825618 L-2.13162821e-13,6 C-2.13568633e-13,2.6862915 2.6862915,-6.33401278e-14 6,-6.39488462e-14 L65.468562,-6.39488462e-14 C68.7822705,-6.45575646e-14 71.468562,2.6862915 71.468562,6 L71.468562,42.5825618 C71.468562,45.8962703 68.7822705,48.5825618 65.468562,48.5825618 L7.52335751,48.5825618 Z" id="Combined-Shape-Copy" fill="#01ACCD" opacity="0.501464844" transform="translate(35.734281, 27.581742) scale(-1, 1) translate(-35.734281, -27.581742) "></path>
                <rect id="Rectangle" fill="#222222" opacity="0.501348586" x="9.55712148" y="15.1511693" width="18" height="3" rx="1.5"></rect>
                <rect id="Rectangle-Copy-2" fill="#222222" opacity="0.501348586" x="9.35484172" y="24.4219667" width="13" height="3" rx="1.5"></rect>
                <rect id="Rectangle-Copy-3" fill="#222222" opacity="0.501348586" x="9.1316328" y="33.2134075" width="19" height="3" rx="1.5"></rect>
                <path d="M53.437898,23.0428263 L53.6224254,20.9336691 C53.8292026,18.5701944 51.9986969,16.4794058 49.5338764,16.2637619 L49.2437845,16.2383822 C46.7789641,16.0227383 44.6132062,17.7638992 44.406429,20.1273739 L44.2219016,22.2365311 C43.0901746,22.223762 41.9579877,22.2407273 40.8253408,22.2874271 L41.0392855,19.8420275 C41.4036368,15.6975625 45.1966053,12.6418507 49.5198159,13.0098968 L49.8099078,13.0352765 C54.1302566,13.421741 57.3361772,17.0865245 56.9789356,21.2304058 L56.7649908,23.6758055 C55.665805,23.4379525 54.5567741,23.2269594 53.437898,23.0428263 Z M38.472768,25.0127896 C45.4327106,24.4305655 52.4716664,25.0463943 59.2247697,26.8283545 L59.3782558,26.8680549 C60.192451,27.0825467 60.7331931,27.7933656 60.6652971,28.5599019 L59.7123244,39.4524294 C59.6460813,40.2191102 58.9901219,40.8252313 58.15105,40.895081 L57.0733228,40.9846968 C53.9042049,41.2525084 50.7097833,41.2486319 47.5318417,40.9731181 C44.3554636,40.6954058 41.2097207,40.1475228 38.1357251,39.3366291 L37.0899326,39.0612293 C36.2757373,38.8467375 35.7349953,38.1359186 35.8028913,37.3693824 L36.755864,26.4768549 C36.8221071,25.710174 37.4780664,25.1040529 38.3171383,25.0342032 L38.472768,25.0127896 Z M43.4495486,32.7138982 L46.2199838,36.1965062 C46.3550622,36.3619028 46.5603376,36.4677563 46.7839398,36.487319 C47.0075419,36.5068816 47.2280801,36.438282 47.3898271,36.2988542 L52.7744664,31.7957638 C53.0811387,31.5387851 53.1079065,31.1037487 52.8352081,30.8085763 L52.0206597,29.940392 C51.7513916,29.6486004 51.2831256,29.5948427 50.9518976,29.8176962 L47.1150421,32.409895 L45.5502762,31.0732363 C45.2580405,30.8233662 44.8107595,30.8093095 44.5088787,31.0405083 L43.5715877,31.7583456 C43.2677096,31.9971306 43.2149762,32.4100273 43.4495486,32.7138982 Z" id="Combined-Shape" fill="#222222" opacity="0.501348586" transform="translate(48.234094, 27.081273) rotate(-5.000000) translate(-48.234094, -27.081273) "></path>
            </g>
        </g>
    </g>
</svg>