<?xml version="1.0" encoding="UTF-8"?>
<svg width="32px" height="32px" viewBox="0 0 32 32" version="1.1" xmlns="http://www.w3.org/2000/svg" xmlns:xlink="http://www.w3.org/1999/xlink">
    <!-- Generator: Sketch 56 (81588) - https://sketch.com -->
    <title>Icons/32/privet</title>
    <desc>Created with Sketch.</desc>
    <g id="Icons/32/privet" stroke="none" stroke-width="1" fill="none" fill-rule="evenodd">
        <path d="M21.4231261,14.7977412 L20.5597503,14.7977412 C20.449061,14.7977412 20.3383718,14.7077435 20.3383718,14.5727471 L20.3383718,12.5028013 C20.3383718,10.1178638 18.5230689,8.09291688 16.1764577,8.00291924 C13.7191573,7.9129216 11.6824759,9.91536912 11.6824759,12.4128037 L11.6824759,14.5952465 C11.6824759,14.7077435 11.5939246,14.8202406 11.4610975,14.8202406 L10.5977217,14.8202406 C10.2656541,14.8202406 10,15.0902335 10,15.4277247 L10,23.3925159 C10,23.7300071 10.2656541,24 10.5977217,24 L21.4009882,24 C21.7330558,24 21.9987099,23.7300071 21.9987099,23.3925159 L21.9987099,15.4052252 C22.0208478,15.0677341 21.7551937,14.7977412 21.4231261,14.7977412 Z M13.0220588,12.7909291 C13.0220588,11.2012239 14.4338235,9.92120147 16.1544118,10.0037836 C17.7647059,10.0863656 19,11.366388 19,12.8735112 L19,14.7935448 C19,14.8967724 18.9117647,15 18.7794118,15 L13.2205882,15 C13.1102941,15 13,14.9174179 13,14.7935448 L13,12.7909291 L13.0220588,12.7909291 Z" id="Shape" fill="#999999"></path>
    </g>
</svg>