<?xml version="1.0" encoding="UTF-8"?>
<svg width="16px" height="16px" viewBox="0 0 16 16" version="1.1" xmlns="http://www.w3.org/2000/svg" xmlns:xlink="http://www.w3.org/1999/xlink">
    <!-- Generator: Sketch 57.1 (83088) - https://sketch.com -->
    <title>Icons/16/reply</title>
    <desc>Created with Sketch.</desc>
    <g id="Icons/16/reply" stroke="none" stroke-width="1" fill="none" fill-rule="evenodd">
        <path d="M6.04740541,6.32633439 L10.6453249,6.32633439 L9.30760548,5.09281724 C9.04214281,4.84611381 9.04214281,4.431731 9.30760548,4.18502757 C9.57306814,3.93832414 10.0189605,3.93832414 10.2844231,4.18502757 L12.800903,6.52367739 C13.0663657,6.77038082 13.0663657,7.18476364 12.800903,7.43146706 L10.2844231,9.77011689 C10.1462976,9.89848161 9.97665634,9.9574536 9.79580194,9.9574536 C9.61537227,9.9574536 9.44530627,9.89809083 9.30718074,9.77011689 C9.04171807,9.52341346 9.04171807,9.10903064 9.30718074,8.86232721 L10.6453249,7.61874457 L6.04783015,7.61874457 C5.13446869,7.61874457 4.38083081,8.30951417 4.38083081,9.16794342 C4.38083081,10.0167611 5.12412626,10.7171423 6.04783015,10.7171423 C6.43026628,10.7171423 6.73803308,11.0031604 6.73803308,11.3585712 C6.73803308,11.713982 6.43026628,12 6.04783015,12 C4.36999993,11.9903632 3,10.7272078 3,9.15827265 C3,7.59912671 4.36957519,6.32633439 6.04740541,6.32633439 Z" id="Fill-1" fill="#ffffff" transform="translate(8.000000, 8.000000) scale(-1, -1) translate(-8.000000, -8.000000) "></path>
    </g>
</svg>